<?xml version="1.0" encoding="UTF-8" standalone="no"?>
<!DOCTYPE svg PUBLIC "-//W3C//DTD SVG 1.1//EN" "http://www.w3.org/Graphics/SVG/1.1/DTD/svg11.dtd">
<svg xmlns="http://www.w3.org/2000/svg" xmlns:xlink="http://www.w3.org/1999/xlink" version="1.1"
	width="100%" height="100%" viewBox="0 0 235 500" xml:space="preserve">
<desc>Created with Fabric.js 5.3.0</desc>
<defs>
</defs>
<g transform="matrix(0.5875748337 0 0 3.9476902309 197.1354865303 250.0467513161)" id="z-gD78pOtWjQii31Q-6Ze"  >
<path style="stroke: rgb(110,11,48); stroke-width: 0; stroke-dasharray: none; stroke-linecap: butt; stroke-dashoffset: 0; stroke-linejoin: miter; stroke-miterlimit: 4; fill: rgb(52,52,52); fill-rule: nonzero; opacity: 1;" vector-effect="non-scaling-stroke"  transform=" translate(0, 0)" d="M 0 -63.26949 C 34.92476 -63.26949 63.26949 -34.92476 63.26949 0 C 63.26949 34.92476 34.92476 63.26949 0 63.26949 C -34.92476 63.26949 -63.26949 34.92476 -63.26949 0 C -63.26949 -34.92476 -34.92476 -63.26949 0 -63.26949 z" stroke-linecap="round" />
</g>
<g transform="matrix(0.3815761198 0 0 3.4623174046 197.1354865303 250.0467382769)" id="qCAOML5j7kpAVIP3Df73i"  >
<path style="stroke: rgb(110,11,48); stroke-width: 0; stroke-dasharray: none; stroke-linecap: butt; stroke-dashoffset: 0; stroke-linejoin: miter; stroke-miterlimit: 4;fill-rule: nonzero; opacity: 1;" fill="current" vector-effect="non-scaling-stroke"  transform=" translate(0, 0)" d="M 0 -63.26949 C 34.92476 -63.26949 63.26949 -34.92476 63.26949 0 C 63.26949 34.92476 34.92476 63.26949 0 63.26949 C -34.92476 63.26949 -63.26949 34.92476 -63.26949 0 C -63.26949 -34.92476 -34.92476 -63.26949 0 -63.26949 z" stroke-linecap="round" />
</g>
<g transform="matrix(2.0736420266 0 0 3.3577085856 117.2947215155 250.0467440227)" id="DwEIaQUSPW4DgKfkdPWoC"  >
<path style="stroke: rgb(0,0,0); stroke-width: 0; stroke-dasharray: none; stroke-linecap: butt; stroke-dashoffset: 0; stroke-linejoin: miter; stroke-miterlimit: 4;fill-rule: nonzero; opacity: 1;" fill="current" vector-effect="non-scaling-stroke"  transform=" translate(-0.000005, 0)" d="M -38.50267 -65.24064 L 38.502680000000005 -65.24064 L 38.502680000000005 65.24064 L -38.50267 65.24064 z" stroke-linecap="round" />
</g>
<g transform="matrix(0.5875748337 0 0 3.9476902309 37.4539565008 250.0467440227)" id="OvgM38-6CZm9R47a1TDIX"  >
<filter id="SVGID_90" y="-24.74162191%" height="149.48324381999998%" x="-40.54702828%" width="181.09405656%" >
	<feGaussianBlur in="SourceAlpha" stdDeviation="20"></feGaussianBlur>
	<feOffset dx="30" dy="0" result="oBlur" ></feOffset>
	<feFlood flood-color="rgb(0,0,0)" flood-opacity="0.8"/>
	<feComposite in2="oBlur" operator="in" />
	<feMerge>
		<feMergeNode></feMergeNode>
		<feMergeNode in="SourceGraphic"></feMergeNode>
	</feMerge>
</filter>
<path style="stroke: rgb(110,11,48); stroke-width: 0; stroke-dasharray: none; stroke-linecap: butt; stroke-dashoffset: 0; stroke-linejoin: miter; stroke-miterlimit: 4; fill: rgb(52,52,52); fill-rule: nonzero; opacity: 1;filter: url(#SVGID_90);" vector-effect="non-scaling-stroke"  transform=" translate(0, 0)" d="M 0 -63.26949 C 34.92476 -63.26949 63.26949 -34.92476 63.26949 0 C 63.26949 34.92476 34.92476 63.26949 0 63.26949 C -34.92476 63.26949 -63.26949 34.92476 -63.26949 0 C -63.26949 -34.92476 -34.92476 -63.26949 0 -63.26949 z" stroke-linecap="round" />
</g>
<g transform="matrix(0.2435597948 0 0 1.6363849628 37.4539565008 250.0467440227)" id="woBV3Wt7ijQ6puNeMgAQD"  >
<path style="stroke: rgb(110,11,48); stroke-width: 0; stroke-dasharray: none; stroke-linecap: butt; stroke-dashoffset: 0; stroke-linejoin: miter; stroke-miterlimit: 4; fill: rgb(17,17,17); fill-rule: nonzero; opacity: 1;" vector-effect="non-scaling-stroke"  transform=" translate(0, 0)" d="M 0 -63.26949 C 34.92476 -63.26949 63.26949 -34.92476 63.26949 0 C 63.26949 34.92476 34.92476 63.26949 0 63.26949 C -34.92476 63.26949 -63.26949 34.92476 -63.26949 0 C -63.26949 -34.92476 -34.92476 -63.26949 0 -63.26949 z" stroke-linecap="round" />
</g>
</svg>
