<?xml version="1.0" encoding="UTF-8" standalone="no"?>
<!DOCTYPE svg PUBLIC "-//W3C//DTD SVG 1.1//EN" "http://www.w3.org/Graphics/SVG/1.1/DTD/svg11.dtd">
<svg xmlns="http://www.w3.org/2000/svg" xmlns:xlink="http://www.w3.org/1999/xlink" version="1.1"
    width="100%" height="100%" viewBox="0 0 220 220" xml:space="preserve">
<desc>Created with Fabric.js 5.3.0</desc>
<defs>
</defs>
<g transform="matrix(0.9419630011 0 0 0.9419630011 110 110)" id="97_aBJ1JQMj7gfw9xgqJk"  >
<path style="stroke: rgb(0,0,0); stroke-width: 0; stroke-dasharray: none; stroke-linecap: butt; stroke-dashoffset: 0; stroke-linejoin: miter; stroke-miterlimit: 4; fill: rgb(220,119,52); fill-rule: nonzero; opacity: 1;" vector-effect="non-scaling-stroke"  transform=" translate(0, 0)" d="M -116.77741 -67.23295 C -116.77741 -94.5956 -94.5956 -116.77741 -67.23295 -116.77741 L 67.23295 -116.77741 L 67.23295 -116.77741 C 94.5956 -116.77741 116.77741 -94.5956 116.77741 -67.23295 L 116.77741 67.23295 L 116.77741 67.23295 C 116.77741 94.5956 94.5956 116.77741 67.23295 116.77741 L -67.23295 116.77741 L -67.23295 116.77741 C -94.5956 116.77741 -116.77741 94.5956 -116.77741 67.23295 z" stroke-linecap="round" />
</g>
<g transform="matrix(4.0068 0 0 4.0068 110 110)" id="bajrpvpoPMPegFQ9fLbAW"  >
<path style="stroke: rgb(89,142,199); stroke-width: 0; stroke-dasharray: none; stroke-linecap: butt; stroke-dashoffset: 0; stroke-linejoin: miter; stroke-miterlimit: 4; fill: rgb(17,17,17); fill-rule: nonzero; opacity: 1;" vector-effect="non-scaling-stroke"  transform=" translate(0, 0)" d="M 0 -22.46181 C 12.39892 -22.46181 22.46181 -12.39892 22.46181 0 C 22.46181 12.39892 12.39892 22.46181 0 22.46181 C -12.39892 22.46181 -22.46181 12.39892 -22.46181 0 C -22.46181 -12.39892 -12.39892 -22.46181 0 -22.46181 z" stroke-linecap="round" />
</g>
<g transform="matrix(-0.6562947252 0.6562947252 -0.6562947252 -0.6562947252 170 110)" id="uzP7ffSaxXnc8ieJ8GKAi"  >
<path style="stroke: rgb(255,255,255); stroke-width: 0; stroke-dasharray: none; stroke-linecap: butt; stroke-dashoffset: 0; stroke-linejoin: miter; stroke-miterlimit: 4; fill: rgb(52,52,52); fill-rule: nonzero; opacity: 1;" vector-effect="non-scaling-stroke"  transform=" translate(0, 0)" d="M -33.16071 25.30347 C -35.26675 24.713710000000003 -37.021860000000004 23.25476 -37.98653 21.29195 C -38.95121 19.32914 -39.0341 17.04834 -38.21447 15.020669999999999 L -38.21447 15.020669999999999 L -38.21447 15.020669999999999 C -28.42178 -9.205020000000001 -9.211359999999999 -28.41564 15.014230000000005 -38.20859 L 15.047580000000005 -38.22207 L 15.047580000000005 -38.22207 C 17.067020000000007 -39.03841 19.338600000000007 -38.95586 21.293460000000003 -37.995110000000004 C 23.248330000000003 -37.03435 24.701380000000004 -35.286350000000006 25.288750000000004 -33.188840000000006 L 37.998650000000005 12.198379999999993 L 37.998650000000005 12.198379999999993 C 40.03828000000001 19.481909999999992 37.990640000000006 27.299259999999993 32.64228000000001 32.64761999999999 C 27.293920000000007 37.99597999999999 19.476570000000006 40.04361999999999 12.193040000000007 38.00398999999999 z" stroke-linecap="round" />
</g>
<g transform="matrix(-0.6562947251 0.6562947251 -0.6562947251 -0.6562947251 158.4921266728 110.0839790702)" id="sLvjm8ckG9Tn4B020NjmX"  >
<path style="stroke: rgb(255,255,255); stroke-width: 0; stroke-dasharray: none; stroke-linecap: butt; stroke-dashoffset: 0; stroke-linejoin: miter; stroke-miterlimit: 4; fill: rgb(190,190,190); fill-rule: nonzero; opacity: 1;" vector-effect="non-scaling-stroke"  transform=" translate(0, 0)" d="M -29.98183 19.80196 L -29.17187 17.09468 L -29.17187 17.09468 C -22.390079999999998 -5.573499999999999 -4.466099999999997 -23.18579 18.31756 -29.568920000000002 L 19.88717 -30.008660000000003 L 29.21402 3.473359999999996 L 29.21402 3.473359999999996 C 31.243070000000003 10.757369999999996 29.183770000000003 18.569419999999994 23.82768 23.906659999999995 C 18.47159 29.243899999999996 10.652330000000001 31.275649999999995 3.375510000000002 29.220929999999996 z" stroke-linecap="round" />
</g>
<g transform="matrix(-0.2402205418 -0.8965152669 0.8965152669 -0.2402205418 81.095890411 162.7397260274)" id="itojFe0oOsJTunxHV6_ba"  >
<path style="stroke: rgb(255,255,255); stroke-width: 0; stroke-dasharray: none; stroke-linecap: butt; stroke-dashoffset: 0; stroke-linejoin: miter; stroke-miterlimit: 4; fill: rgb(52,52,52); fill-rule: nonzero; opacity: 1;" vector-effect="non-scaling-stroke"  transform=" translate(-7.913e-7, 0.0000091739)" d="M -33.16071 25.30347 C -35.26675 24.713710000000003 -37.021860000000004 23.25476 -37.98653 21.29195 C -38.95121 19.32914 -39.0341 17.04834 -38.21447 15.020669999999999 L -38.21447 15.020669999999999 L -38.21447 15.020669999999999 C -28.42178 -9.205020000000001 -9.211359999999999 -28.41564 15.014230000000005 -38.20859 L 15.047580000000005 -38.22207 L 15.047580000000005 -38.22207 C 17.067020000000007 -39.03841 19.338600000000007 -38.95586 21.293460000000003 -37.995110000000004 C 23.248330000000003 -37.03435 24.701380000000004 -35.286350000000006 25.288750000000004 -33.188840000000006 L 37.998650000000005 12.198379999999993 L 37.998650000000005 12.198379999999993 C 40.03828000000001 19.481909999999992 37.990640000000006 27.299259999999993 32.64228000000001 32.64761999999999 C 27.293920000000007 37.99597999999999 19.476570000000006 40.04361999999999 12.193040000000007 38.00398999999999 z" stroke-linecap="round" />
</g>
<g transform="matrix(-0.2402205418 -0.8965152669 0.8965152669 -0.2402205418 86.7770990664 152.7316258474)" id="-SRJJg6dkRVX31Lo1Y4pF"  >
<path style="stroke: rgb(255,255,255); stroke-width: 0; stroke-dasharray: none; stroke-linecap: butt; stroke-dashoffset: 0; stroke-linejoin: miter; stroke-miterlimit: 4; fill: rgb(190,190,190); fill-rule: nonzero; opacity: 1;" vector-effect="non-scaling-stroke"  transform=" translate(-0.0000037498, -3.945e-7)" d="M -29.98183 19.80196 L -29.17187 17.09468 L -29.17187 17.09468 C -22.390079999999998 -5.573499999999999 -4.466099999999997 -23.18579 18.31756 -29.568920000000002 L 19.88717 -30.008660000000003 L 29.21402 3.473359999999996 L 29.21402 3.473359999999996 C 31.243070000000003 10.757369999999996 29.183770000000003 18.569419999999994 23.82768 23.906659999999995 C 18.47159 29.243899999999996 10.652330000000001 31.275649999999995 3.375510000000002 29.220929999999996 z" stroke-linecap="round" />
</g>
<g transform="matrix(0.8965152669 0.2402205418 -0.2402205418 0.8965152669 80.6849315069 58.4840992287)" id="Okowo2lxooMVge1Zf9juM"  >
<path style="stroke: rgb(255,255,255); stroke-width: 0; stroke-dasharray: none; stroke-linecap: butt; stroke-dashoffset: 0; stroke-linejoin: miter; stroke-miterlimit: 4; fill: rgb(52,52,52); fill-rule: nonzero; opacity: 1;" vector-effect="non-scaling-stroke"  transform=" translate(-7.913e-7, 0.0000091739)" d="M -33.16071 25.30347 C -35.26675 24.713710000000003 -37.021860000000004 23.25476 -37.98653 21.29195 C -38.95121 19.32914 -39.0341 17.04834 -38.21447 15.020669999999999 L -38.21447 15.020669999999999 L -38.21447 15.020669999999999 C -28.42178 -9.205020000000001 -9.211359999999999 -28.41564 15.014230000000005 -38.20859 L 15.047580000000005 -38.22207 L 15.047580000000005 -38.22207 C 17.067020000000007 -39.03841 19.338600000000007 -38.95586 21.293460000000003 -37.995110000000004 C 23.248330000000003 -37.03435 24.701380000000004 -35.286350000000006 25.288750000000004 -33.188840000000006 L 37.998650000000005 12.198379999999993 L 37.998650000000005 12.198379999999993 C 40.03828000000001 19.481909999999992 37.990640000000006 27.299259999999993 32.64228000000001 32.64761999999999 C 27.293920000000007 37.99597999999999 19.476570000000006 40.04361999999999 12.193040000000007 38.00398999999999 z" stroke-linecap="round" />
</g>
<g transform="matrix(0.8965152669 0.2402205418 -0.2402205418 0.8965152669 86.5115961787 68.4082203385)" id="9DKPKJNmrFA1_5WNxgrse"  >
<path style="stroke: rgb(255,255,255); stroke-width: 0; stroke-dasharray: none; stroke-linecap: butt; stroke-dashoffset: 0; stroke-linejoin: miter; stroke-miterlimit: 4; fill: rgb(190,190,190); fill-rule: nonzero; opacity: 1;" vector-effect="non-scaling-stroke"  transform=" translate(-0.0000037498, -3.945e-7)" d="M -29.98183 19.80196 L -29.17187 17.09468 L -29.17187 17.09468 C -22.390079999999998 -5.573499999999999 -4.466099999999997 -23.18579 18.31756 -29.568920000000002 L 19.88717 -30.008660000000003 L 29.21402 3.473359999999996 L 29.21402 3.473359999999996 C 31.243070000000003 10.757369999999996 29.183770000000003 18.569419999999994 23.82768 23.906659999999995 C 18.47159 29.243899999999996 10.652330000000001 31.275649999999995 3.375510000000002 29.220929999999996 z" stroke-linecap="round" />
</g>
</svg>