<svg xmlns="http://www.w3.org/2000/svg" xmlns:xlink="http://www.w3.org/1999/xlink" width="100%" height="100%" version="1.1" viewBox="0 0 235 500" xml:space="preserve"><desc>Created with Fabric.js 5.3.0</desc><g id="z-gD78pOtWjQii31Q-6Ze"><path style="stroke:#6e0b30;stroke-width:0;stroke-dasharray:none;stroke-linecap:butt;stroke-dashoffset:0;stroke-linejoin:miter;stroke-miterlimit:4;fill:#343434;fill-rule:nonzero;opacity:1" stroke-linecap="round" d="M 0 -63.26949 C 34.92476 -63.26949 63.26949 -34.92476 63.26949 0 C 63.26949 34.92476 34.92476 63.26949 0 63.26949 C -34.92476 63.26949 -63.26949 34.92476 -63.26949 0 C -63.26949 -34.92476 -34.92476 -63.26949 0 -63.26949 z" transform="matrix(0.5875748337 0 0 3.9476902309 197.1354865303 250.0467513161) translate(0, 0)" vector-effect="non-scaling-stroke"/></g><g id="qCAOML5j7kpAVIP3Df73i"><path style="stroke:#6e0b30;stroke-width:0;stroke-dasharray:none;stroke-linecap:butt;stroke-dashoffset:0;stroke-linejoin:miter;stroke-miterlimit:4;fill-rule:nonzero;opacity:1" fill="current" stroke-linecap="round" d="M 0 -63.26949 C 34.92476 -63.26949 63.26949 -34.92476 63.26949 0 C 63.26949 34.92476 34.92476 63.26949 0 63.26949 C -34.92476 63.26949 -63.26949 34.92476 -63.26949 0 C -63.26949 -34.92476 -34.92476 -63.26949 0 -63.26949 z" transform="matrix(0.3815761198 0 0 3.4623174046 197.1354865303 250.0467382769) translate(0, 0)" vector-effect="non-scaling-stroke"/></g><g id="DwEIaQUSPW4DgKfkdPWoC"><path style="stroke:#000;stroke-width:0;stroke-dasharray:none;stroke-linecap:butt;stroke-dashoffset:0;stroke-linejoin:miter;stroke-miterlimit:4;fill-rule:nonzero;opacity:1" fill="current" stroke-linecap="round" d="M -38.50267 -65.24064 L 38.502680000000005 -65.24064 L 38.502680000000005 65.24064 L -38.50267 65.24064 z" transform="matrix(2.0736420266 0 0 3.3577085856 117.2947215155 250.0467440227) translate(-0.000005, 0)" vector-effect="non-scaling-stroke"/></g><g id="OvgM38-6CZm9R47a1TDIX" transform="matrix(0.5875748337 0 0 3.9476902309 37.4539565008 250.0467440227)"><filter id="SVGID_90" width="181.094%" height="149.483%" x="-40.547%" y="-24.742%"><feGaussianBlur in="SourceAlpha" stdDeviation="20"/><feOffset dx="30" dy="0" result="oBlur"/><feFlood flood-color="#000" flood-opacity=".8"/><feComposite in2="oBlur" operator="in"/><feMerge><feMergeNode/><feMergeNode in="SourceGraphic"/></feMerge></filter><path style="stroke:#6e0b30;stroke-width:0;stroke-dasharray:none;stroke-linecap:butt;stroke-dashoffset:0;stroke-linejoin:miter;stroke-miterlimit:4;fill:#343434;fill-rule:nonzero;opacity:1;filter:url(#SVGID_90)" stroke-linecap="round" d="M 0 -63.26949 C 34.92476 -63.26949 63.26949 -34.92476 63.26949 0 C 63.26949 34.92476 34.92476 63.26949 0 63.26949 C -34.92476 63.26949 -63.26949 34.92476 -63.26949 0 C -63.26949 -34.92476 -34.92476 -63.26949 0 -63.26949 z" transform="translate(0, 0)" vector-effect="non-scaling-stroke"/></g><g id="woBV3Wt7ijQ6puNeMgAQD"><path style="stroke:#6e0b30;stroke-width:0;stroke-dasharray:none;stroke-linecap:butt;stroke-dashoffset:0;stroke-linejoin:miter;stroke-miterlimit:4;fill:#111;fill-rule:nonzero;opacity:1" stroke-linecap="round" d="M 0 -63.26949 C 34.92476 -63.26949 63.26949 -34.92476 63.26949 0 C 63.26949 34.92476 34.92476 63.26949 0 63.26949 C -34.92476 63.26949 -63.26949 34.92476 -63.26949 0 C -63.26949 -34.92476 -34.92476 -63.26949 0 -63.26949 z" transform="matrix(0.2435597948 0 0 1.6363849628 37.4539565008 250.0467440227) translate(0, 0)" vector-effect="non-scaling-stroke"/></g></svg>