<?xml version="1.0" encoding="UTF-8" standalone="no"?>
<svg
   version="1.1"
   width="235"
   height="500"
   viewBox="0 0 235 500"
   xml:space="preserve"
   id="svg5"
   sodipodi:docname="spool.svg"
   inkscape:version="1.3 (0e150ed6c4, 2023-07-21)"
   xmlns:inkscape="http://www.inkscape.org/namespaces/inkscape"
   xmlns:sodipodi="http://sodipodi.sourceforge.net/DTD/sodipodi-0.dtd"
   xmlns="http://www.w3.org/2000/svg"
   xmlns:svg="http://www.w3.org/2000/svg"><sodipodi:namedview
   id="namedview5"
   pagecolor="#ffffff"
   bordercolor="#000000"
   borderopacity="0.25"
   inkscape:showpageshadow="2"
   inkscape:pageopacity="0.0"
   inkscape:pagecheckerboard="true"
   inkscape:deskcolor="#d1d1d1"
   inkscape:zoom="1.6588725"
   inkscape:cx="132.92161"
   inkscape:cy="209.47963"
   inkscape:window-width="1350"
   inkscape:window-height="1237"
   inkscape:window-x="1189"
   inkscape:window-y="48"
   inkscape:window-maximized="0"
   inkscape:current-layer="svg5" />&#10;<desc
   id="desc1">Created with Fabric.js 5.3.0</desc>&#10;<defs
   id="defs1">&#10;</defs>&#10;&#10;&#10;&#10;&#10;<path
   style="stroke:rgb(110, 11, 48);stroke-width:0;stroke-dasharray:none;stroke-linecap:butt;stroke-dashoffset:0;stroke-linejoin:miter;stroke-miterlimit:4;fill:rgb(52, 52, 52);fill-rule:nonzero;opacity:1"
   vector-effect="non-scaling-stroke"
   transform="matrix(0.58757483,0,0,3.9476902,197.13549,250.04675)"
   d="M 0 -63.26949 C 34.92476 -63.26949 63.26949 -34.92476 63.26949 0 C 63.26949 34.92476 34.92476 63.26949 0 63.26949 C -34.92476 63.26949 -63.26949 34.92476 -63.26949 0 C -63.26949 -34.92476 -34.92476 -63.26949 0 -63.26949 z"
   stroke-linecap="round"
   id="path1"
   inkscape:label="rightside" /><path
   style="stroke:rgb(110, 11, 48);stroke-width:0;stroke-dasharray:none;stroke-linecap:butt;stroke-dashoffset:0;stroke-linejoin:miter;stroke-miterlimit:4;fill:rgb(255, 0, 0);fill-rule:nonzero;opacity:1"
   vector-effect="non-scaling-stroke"
   transform="matrix(0.38157612,0,0,3.4623174,197.13549,250.04674)"
   d="M 0 -63.26949 C 34.92476 -63.26949 63.26949 -34.92476 63.26949 0 C 63.26949 34.92476 34.92476 63.26949 0 63.26949 C -34.92476 63.26949 -63.26949 34.92476 -63.26949 0 C -63.26949 -34.92476 -34.92476 -63.26949 0 -63.26949 z"
   stroke-linecap="round"
   id="path2"
   inkscape:label="filament_right" /><path
   style="stroke:rgb(0, 0, 0);stroke-width:0;stroke-dasharray:none;stroke-linecap:butt;stroke-dashoffset:0;stroke-linejoin:miter;stroke-miterlimit:4;fill:rgb(255, 0, 0);fill-rule:nonzero;opacity:1"
   vector-effect="non-scaling-stroke"
   transform="matrix(2.073642,0,0,3.3577086,117.29471,250.04674)"
   d="M -38.50267 -65.24064 L 38.502680000000005 -65.24064 L 38.502680000000005 65.24064 L -38.50267 65.24064 z"
   stroke-linecap="round"
   id="path3"
   inkscape:label="filament_main" /><g
   transform="matrix(0.58757483,0,0,3.9476902,37.453957,250.04674)"
   id="OvgM38-6CZm9R47a1TDIX"
   inkscape:label="fg">&#10;<filter
   id="SVGID_1"
   y="-0.056899467"
   height="1.1137989"
   x="-0.056899467"
   width="1.271853">&#10;	<feGaussianBlur
   in="SourceAlpha"
   stdDeviation="3"
   id="feGaussianBlur3" />&#10;	<feOffset
   dx="20"
   dy="0"
   result="oBlur"
   id="feOffset3" />&#10;	<feFlood
   flood-color="rgb(0,0,0)"
   flood-opacity="0.67"
   id="feFlood3" />&#10;	<feComposite
   in2="oBlur"
   operator="in"
   id="feComposite3" />&#10;	<feMerge
   id="feMerge4">&#10;		<feMergeNode
   id="feMergeNode3" />&#10;		<feMergeNode
   in="SourceGraphic"
   id="feMergeNode4" />&#10;	</feMerge>&#10;</filter>&#10;&#10;<path
   style="stroke:rgb(110, 11, 48);stroke-width:0;stroke-dasharray:none;stroke-linecap:butt;stroke-dashoffset:0;stroke-linejoin:miter;stroke-miterlimit:4;fill:rgb(52, 52, 52);fill-rule:nonzero;opacity:1;filter:url(#SVGID_1)"
   vector-effect="non-scaling-stroke"
   transform="translate(8.4959392e-7)"
   d="M 0 -63.26949 C 34.92476 -63.26949 63.26949 -34.92476 63.26949 0 C 63.26949 34.92476 34.92476 63.26949 0 63.26949 C -34.92476 63.26949 -63.26949 34.92476 -63.26949 0 C -63.26949 -34.92476 -34.92476 -63.26949 0 -63.26949 z"
   stroke-linecap="round"
   id="path4"
   inkscape:label="leftside" /><path
   style="stroke:rgb(110, 11, 48);stroke-width:0;stroke-dasharray:none;stroke-linecap:butt;stroke-dashoffset:0;stroke-linejoin:miter;stroke-miterlimit:4;fill:rgb(17, 17, 17);fill-rule:nonzero;opacity:1"
   vector-effect="non-scaling-stroke"
   transform="scale(0.41451706)"
   d="M 0 -63.26949 C 34.92476 -63.26949 63.26949 -34.92476 63.26949 0 C 63.26949 34.92476 34.92476 63.26949 0 63.26949 C -34.92476 63.26949 -63.26949 34.92476 -63.26949 0 C -63.26949 -34.92476 -34.92476 -63.26949 0 -63.26949 z"
   stroke-linecap="round"
   id="path5"
   inkscape:label="hole" /></g>&#10;</svg>
