<svg xmlns="http://www.w3.org/2000/svg" xmlns:svg="http://www.w3.org/2000/svg" id="svg5" width="235" height="500" version="1.1" viewBox="0 0 235 500" xml:space="preserve"><desc id="desc1">Created with Fabric.js 5.3.0</desc><path style="stroke:#6e0b30;stroke-width:0;stroke-dasharray:none;stroke-linecap:butt;stroke-dashoffset:0;stroke-linejoin:miter;stroke-miterlimit:4;fill:#343434;fill-rule:nonzero;opacity:1" id="path1" stroke-linecap="round" d="M 0 -63.26949 C 34.92476 -63.26949 63.26949 -34.92476 63.26949 0 C 63.26949 34.92476 34.92476 63.26949 0 63.26949 C -34.92476 63.26949 -63.26949 34.92476 -63.26949 0 C -63.26949 -34.92476 -34.92476 -63.26949 0 -63.26949 z" transform="matrix(0.58757483,0,0,3.9476902,197.13549,250.04675)" vector-effect="non-scaling-stroke"/><path style="stroke:#6e0b30;stroke-width:0;stroke-dasharray:none;stroke-linecap:butt;stroke-dashoffset:0;stroke-linejoin:miter;stroke-miterlimit:4;fill:red;fill-rule:nonzero;opacity:1" id="path2" stroke-linecap="round" d="M 0 -63.26949 C 34.92476 -63.26949 63.26949 -34.92476 63.26949 0 C 63.26949 34.92476 34.92476 63.26949 0 63.26949 C -34.92476 63.26949 -63.26949 34.92476 -63.26949 0 C -63.26949 -34.92476 -34.92476 -63.26949 0 -63.26949 z" transform="matrix(0.38157612,0,0,3.4623174,197.13549,250.04674)" vector-effect="non-scaling-stroke"/><path style="stroke:#000;stroke-width:0;stroke-dasharray:none;stroke-linecap:butt;stroke-dashoffset:0;stroke-linejoin:miter;stroke-miterlimit:4;fill:red;fill-rule:nonzero;opacity:1" id="path3" stroke-linecap="round" d="M -38.50267 -65.24064 L 38.502680000000005 -65.24064 L 38.502680000000005 65.24064 L -38.50267 65.24064 z" transform="matrix(2.073642,0,0,3.3577086,117.29471,250.04674)" vector-effect="non-scaling-stroke"/><g id="OvgM38-6CZm9R47a1TDIX" transform="matrix(0.58757483,0,0,3.9476902,37.453957,250.04674)"><filter id="SVGID_1" width="1.272" height="1.114" x="-.057" y="-.057"><feGaussianBlur id="feGaussianBlur3" in="SourceAlpha" stdDeviation="3"/><feOffset id="feOffset3" dx="20" dy="0" result="oBlur"/><feFlood id="feFlood3" flood-color="#000" flood-opacity=".67"/><feComposite id="feComposite3" in2="oBlur" operator="in"/><feMerge id="feMerge4"><feMergeNode id="feMergeNode3"/><feMergeNode id="feMergeNode4" in="SourceGraphic"/></feMerge></filter><path style="stroke:#6e0b30;stroke-width:0;stroke-dasharray:none;stroke-linecap:butt;stroke-dashoffset:0;stroke-linejoin:miter;stroke-miterlimit:4;fill:#343434;fill-rule:nonzero;opacity:1;filter:url(#SVGID_1)" id="path4" stroke-linecap="round" d="M 0 -63.26949 C 34.92476 -63.26949 63.26949 -34.92476 63.26949 0 C 63.26949 34.92476 34.92476 63.26949 0 63.26949 C -34.92476 63.26949 -63.26949 34.92476 -63.26949 0 C -63.26949 -34.92476 -34.92476 -63.26949 0 -63.26949 z" transform="translate(8.4959392e-7)" vector-effect="non-scaling-stroke"/><path style="stroke:#6e0b30;stroke-width:0;stroke-dasharray:none;stroke-linecap:butt;stroke-dashoffset:0;stroke-linejoin:miter;stroke-miterlimit:4;fill:#111;fill-rule:nonzero;opacity:1" id="path5" stroke-linecap="round" d="M 0 -63.26949 C 34.92476 -63.26949 63.26949 -34.92476 63.26949 0 C 63.26949 34.92476 34.92476 63.26949 0 63.26949 C -34.92476 63.26949 -63.26949 34.92476 -63.26949 0 C -63.26949 -34.92476 -34.92476 -63.26949 0 -63.26949 z" transform="scale(0.41451706)" vector-effect="non-scaling-stroke"/></g></svg>