<svg xmlns="http://www.w3.org/2000/svg" xmlns:svg="http://www.w3.org/2000/svg" id="svg8" width="220" height="220" version="1.1" viewBox="0 0 220 220" xml:space="preserve"><desc id="desc1">Created with Fabric.js 5.3.0</desc><defs id="defs1"><clipPath id="clipPath13" clipPathUnits="userSpaceOnUse"><path id="path13" style="display:none;opacity:1;fill:#bebebe;fill-rule:nonzero;stroke:#fff;stroke-width:0;stroke-linecap:butt;stroke-linejoin:miter;stroke-miterlimit:4;stroke-dasharray:none;stroke-dashoffset:0" d="m -13.757715,-7.7471481 0.343537,-0.55719 v 0 c 2.876446,-4.6653799 7.9428216,-7.5315019 13.42331996,-7.5937639 l 0.37756065,-0.0043 0.0795148,8.0507248 v 0 c 0.0172956,1.7514341 -0.91182739,3.3759065 -2.43022861,4.2489907 -1.5184012,0.8730843 -3.3897584,0.8588954 -4.8947484,-0.037114 z M 0.4322926,16.185974 -0.22201757,16.167056 v 0 C -5.7005765,16.00867 -10.715899,13.054123 -13.510068,8.3390037 l -0.192495,-0.3248328 6.9323756,-4.0942248 v 0 c 1.5081376,-0.8906958 3.3795333,-0.8982879 4.894848,-0.019866 1.51531394,0.8784316 2.43870418,2.5061695 2.41523158,4.2575347 z m 13.3375784,-24.319362 0.310774,0.5761074 v 0 c 2.602114,4.8237643 2.551061,10.6444349 -0.135267,15.4218159 L 13.76031,8.1936583 6.7484202,4.2371568 v 0 C 5.2229859,3.3764201 4.2807128,1.7595388 4.2838,0.00802386 4.2868948,-1.7434936 5.2348557,-3.3570423 6.7633174,-4.2123972 Z"/><path id="lpe_path-effect13" style="opacity:1;fill:#bebebe;fill-rule:nonzero;stroke:#fff;stroke-width:0;stroke-linecap:butt;stroke-linejoin:miter;stroke-miterlimit:4;stroke-dasharray:none;stroke-dashoffset:0" d="m -27.46181,-27.46181 h 54.92362 v 54.92362 h -54.92362 z m 13.704095,19.7146619 6.8989554,4.1073476 c 1.50499,0.8960094 3.3763472,0.9101983 4.8947484,0.037114 1.51840122,-0.8730842 2.44752421,-2.4975566 2.43022861,-4.2489907 v 0 l -0.0795148,-8.0507248 -0.37756065,0.0043 c -5.48049836,0.06226 -10.54687396,2.928384 -13.42331996,7.5937639 v 0 z M 0.4322926,16.185974 0.53989218,8.1576148 C 0.56336478,6.4062496 -0.36002546,4.7785117 -1.8753394,3.9000801 -3.3906541,3.0216582 -5.2620498,3.0292503 -6.7701874,3.9199461 v 0 l -6.9323756,4.0942248 0.192495,0.3248328 c 2.794169,4.7151193 7.8094915,7.6696663 13.28805043,7.8280523 v 0 z M 13.769871,-8.133388 6.7633174,-4.2123972 C 5.2348557,-3.3570423 4.2868948,-1.7434936 4.2838,0.00802386 4.2807128,1.7595388 5.2229859,3.3764201 6.7484202,4.2371568 v 0 l 7.0118898,3.9565015 0.185068,-0.329123 c 2.686328,-4.777381 2.737381,-10.5980516 0.135267,-15.4218159 v 0 z" class="powerclip"/></clipPath></defs><path style="stroke:#598ec7;stroke-width:0;stroke-dasharray:none;stroke-linecap:butt;stroke-dashoffset:0;stroke-linejoin:miter;stroke-miterlimit:4;fill:#000;fill-rule:nonzero;opacity:1;fill-opacity:1" id="path2" stroke-linecap="round" d="M 0,-22.46181 C 12.39892,-22.46181 22.46181,-12.39892 22.46181,0 22.46181,12.39892 12.39892,22.46181 0,22.46181 -12.39892,22.46181 -22.46181,12.39892 -22.46181,0 -22.46181,-12.39892 -12.39892,-22.46181 0,-22.46181 Z" clip-path="url(#clipPath13)" transform="matrix(4.0068,0,0,4.0068,110,110)" vector-effect="non-scaling-stroke"/></svg>