<?xml version="1.0" encoding="UTF-8" standalone="no"?>
<svg
   version="1.1"
   width="220"
   height="220"
   viewBox="0 0 220 220"
   xml:space="preserve"
   id="svg8"
   sodipodi:docname="spoolman_monochrome.svg"
   inkscape:version="1.3 (0e150ed6c4, 2023-07-21)"
   xmlns:inkscape="http://www.inkscape.org/namespaces/inkscape"
   xmlns:sodipodi="http://sodipodi.sourceforge.net/DTD/sodipodi-0.dtd"
   xmlns="http://www.w3.org/2000/svg"
   xmlns:svg="http://www.w3.org/2000/svg"><sodipodi:namedview
   id="namedview8"
   pagecolor="#ffffff"
   bordercolor="#000000"
   borderopacity="0.25"
   inkscape:showpageshadow="2"
   inkscape:pageopacity="0.0"
   inkscape:pagecheckerboard="true"
   inkscape:deskcolor="#d1d1d1"
   inkscape:zoom="3.7701648"
   inkscape:cx="117.10363"
   inkscape:cy="78.245917"
   inkscape:window-width="1898"
   inkscape:window-height="1360"
   inkscape:window-x="868"
   inkscape:window-y="0"
   inkscape:window-maximized="0"
   inkscape:current-layer="svg8" />&#10;<desc
   id="desc1">Created with Fabric.js 5.3.0</desc>&#10;<defs
   id="defs1"><inkscape:path-effect
   effect="powerclip"
   id="path-effect44"
   is_visible="true"
   lpeversion="1"
   inverse="true"
   flatten="false"
   hide_clip="false"
   message="Use fill-rule evenodd on &lt;b&gt;fill and stroke&lt;/b&gt; dialog if no flatten result after convert clip to paths." />&#10;<filter
   id="mask-powermask-path-effect26_inverse"
   inkscape:label="filtermask-powermask-path-effect26"
   style="color-interpolation-filters:sRGB"
   height="100"
   width="100"
   x="-50"
   y="-50"><feColorMatrix
     id="mask-powermask-path-effect26_primitive1"
     values="1"
     type="saturate"
     result="fbSourceGraphic" /><feColorMatrix
     id="mask-powermask-path-effect26_primitive2"
     values="-1 0 0 0 1 0 -1 0 0 1 0 0 -1 0 1 0 0 0 1 0 "
     in="fbSourceGraphic" /></filter><clipPath
   clipPathUnits="userSpaceOnUse"
   id="clipPath44"><path
     id="path44"
     style="display:none;opacity:1;fill:#111111;fill-rule:nonzero;stroke:#ffffff;stroke-width:0;stroke-linecap:butt;stroke-linejoin:miter;stroke-miterlimit:4;stroke-dasharray:none;stroke-dashoffset:0"
     inkscape:label="bean3"
     d="m -1.4701582,-20.520291 c -0.062431,0.001 -0.1250699,0.0055 -0.1876685,0.01316 l -0.00829,9.74e-4 c -6.0075517,0.738754 -11.4577783,3.885223 -15.1012803,8.718577 -0.304957,0.404547 -0.422813,0.920013 -0.324645,1.417024 0.09817,0.4970098 0.403042,0.9287254 0.838906,1.1869464 l 9.3863874,5.5608598 c 1.5073946,0.8930341 3.3796114,0.9033323 4.8969482,0.027297 1.51733798,-0.8760352 2.4437955,-2.5020395 2.42410148,-4.2539987 L 0.33195568,-18.766924 c -0.005665,-0.504529 -0.22610563,-0.982978 -0.60590497,-1.315148 -0.33232005,-0.290645 -0.75918941,-0.445331 -1.19620891,-0.438219 z M 17.156868,-9.8046211 c -0.310107,-0.00387 -0.619477,0.073391 -0.89545,0.2286151 L 6.7526804,-4.2276762 C 5.225594,-3.3687514 4.280321,-1.7530448 4.280321,-9.7584107e-4 4.280321,1.7510956 5.225594,3.3668014 6.7526804,4.2257263 l 9.5160506,5.3527178 c 0.43977,0.247352 0.963831,0.2954153 1.441397,0.1325871 0.477563,-0.1628306 0.863147,-0.521144 1.060207,-0.9856294 l 0.0034,-0.00779 c 2.363993,-5.57207 2.364053,-11.8651116 0,-17.4371544 -0.197872,-0.4663736 -0.585088,-0.8265274 -1.064598,-0.9900162 -0.179814,-0.061309 -0.366217,-0.092729 -0.552284,-0.095053 z M -4.3178549,3.2517969 C -5.1639166,3.2565389 -6.0087324,3.48235 -6.7624296,3.9288684 L -16.15564,9.4941125 c -0.434099,0.2571753 -0.738214,0.6870745 -0.835982,1.1820725 -0.09777,0.494999 0.01994,1.008271 0.323669,1.411176 l 0.0049,0.0063 c 3.643556,4.833316 9.0937237,7.979886 15.1012816,8.718578 0.5028252,0.06182 1.0083882,-0.09349 1.38972742,-0.427009 0.38133922,-0.33352 0.60215883,-0.813442 0.60785165,-1.320021 L 0.55862035,8.1560597 C 0.57831187,6.4041005 -0.34863233,4.7776081 -1.8659679,3.9015723 -2.6246364,3.4635545 -3.4717925,3.247045 -4.3178541,3.2517994 Z" /><path
     id="lpe_path-effect44"
     style="opacity:1;fill:#111111;fill-rule:nonzero;stroke:#ffffff;stroke-width:0;stroke-linecap:butt;stroke-linejoin:miter;stroke-miterlimit:4;stroke-dasharray:none;stroke-dashoffset:0"
     class="powerclip"
     d="m -27.46181,-27.46181 h 54.92362 v 54.92362 h -54.92362 z m 25.9916518,6.941519 c -0.062431,0.001 -0.1250699,0.0055 -0.1876685,0.01316 l -0.00829,9.74e-4 c -6.0075517,0.738754 -11.4577783,3.885223 -15.1012803,8.718577 -0.304957,0.404547 -0.422813,0.920013 -0.324645,1.417024 0.09817,0.4970098 0.403042,0.9287254 0.838906,1.1869464 l 9.3863874,5.5608598 c 1.5073946,0.8930341 3.3796114,0.9033323 4.8969482,0.027297 1.51733798,-0.8760352 2.4437955,-2.5020395 2.42410148,-4.2539987 L 0.33195568,-18.766924 c -0.005665,-0.504529 -0.22610563,-0.982978 -0.60590497,-1.315148 -0.33232005,-0.290645 -0.75918941,-0.445331 -1.19620891,-0.438219 z M 17.156868,-9.8046211 c -0.310107,-0.00387 -0.619477,0.073391 -0.89545,0.2286151 L 6.7526804,-4.2276762 C 5.225594,-3.3687514 4.280321,-1.7530448 4.280321,-9.7584107e-4 4.280321,1.7510956 5.225594,3.3668014 6.7526804,4.2257263 l 9.5160506,5.3527178 c 0.43977,0.247352 0.963831,0.2954153 1.441397,0.1325871 0.477563,-0.1628306 0.863147,-0.521144 1.060207,-0.9856294 l 0.0034,-0.00779 c 2.363993,-5.57207 2.364053,-11.8651116 0,-17.4371544 -0.197872,-0.4663736 -0.585088,-0.8265274 -1.064598,-0.9900162 -0.179814,-0.061309 -0.366217,-0.092729 -0.552284,-0.095053 z M -4.3178549,3.2517969 C -5.1639166,3.2565389 -6.0087324,3.48235 -6.7624296,3.9288684 L -16.15564,9.4941125 c -0.434099,0.2571753 -0.738214,0.6870745 -0.835982,1.1820725 -0.09777,0.494999 0.01994,1.008271 0.323669,1.411176 l 0.0049,0.0063 c 3.643556,4.833316 9.0937237,7.979886 15.1012816,8.718578 0.5028252,0.06182 1.0083882,-0.09349 1.38972742,-0.427009 0.38133922,-0.33352 0.60215883,-0.813442 0.60785165,-1.320021 L 0.55862035,8.1560597 C 0.57831187,6.4041005 -0.34863233,4.7776081 -1.8659679,3.9015723 -2.6246364,3.4635545 -3.4717925,3.247045 -4.3178541,3.2517994 Z" /></clipPath></defs>&#10;&#10;&#10;&#10;&#10;&#10;&#10;<path
   style="stroke:rgb(89, 142, 199);stroke-width:0;stroke-dasharray:none;stroke-linecap:butt;stroke-dashoffset:0;stroke-linejoin:miter;stroke-miterlimit:4;fill:#000000;fill-rule:nonzero;opacity:1;fill-opacity:1"
   vector-effect="non-scaling-stroke"
   transform="matrix(4.0068,0,0,4.0068,110,110)"
   d="M 0,-22.46181 C 12.39892,-22.46181 22.46181,-12.39892 22.46181,0 22.46181,12.39892 12.39892,22.46181 0,22.46181 -12.39892,22.46181 -22.46181,12.39892 -22.46181,0 -22.46181,-12.39892 -12.39892,-22.46181 0,-22.46181 Z"
   stroke-linecap="round"
   id="path2"
   inkscape:label="spoolface"
   clip-path="url(#clipPath44)"
   inkscape:path-effect="#path-effect44"
   inkscape:original-d="M 0 -22.46181 C 12.39892 -22.46181 22.46181 -12.39892 22.46181 0 C 22.46181 12.39892 12.39892 22.46181 0 22.46181 C -12.39892 22.46181 -22.46181 12.39892 -22.46181 0 C -22.46181 -12.39892 -12.39892 -22.46181 0 -22.46181 z" />&#10;&#10;</svg>
